# xmcd
#
# Track frame offsets:
#	150
#	27221
#	54911
#	86394
#	124748
#	150132
#	198648
#	230705
#
# Disc length: 3378 seconds
#
# Revision: 1
# Processed by: cddbd v1.5.2PL0 Copyright (c) Steve Scherf et al.
# Submitted via: audiograbber 1.83.01
#
DISCID=580d3008
DTITLE=Bob Dylan - Heineken Music hall April 2007 CD 2
DYEAR=1900
DGENRE=Country
TTITLE0=Highway 61revisited
TTITLE1=When the deal goes down
TTITLE2=Most likely you go your way
TTITLE3=Ain´t talkin
TTITLE4=Summer days
TTITLE5=Lika a rolling stone
TTITLE6=Thunder on the mountain
TTITLE7=All along the watchtower
EXTD=
EXTT0=
EXTT1=
EXTT2=
EXTT3=
EXTT4=
EXTT5=
EXTT6=
EXTT7=
PLAYORDER=
